{
	"patcher" : 	{
		"fileversion" : 1,
		"appversion" : 		{
			"major" : 9,
			"minor" : 0,
			"revision" : 7,
			"architecture" : "x64",
			"modernui" : 1
		}
,
		"classnamespace" : "box",
		"rect" : [ 34.0, 43.0, 1452.0, 963.0 ],
		"gridsize" : [ 15.0, 15.0 ],
		"toolbars_unpinned_last_save" : 2,
		"boxes" : [ 			{
				"box" : 				{
					"id" : "obj-46",
					"maxclass" : "newobj",
					"numinlets" : 1,
					"numoutlets" : 1,
					"outlettype" : [ "" ],
					"patching_rect" : [ 1285.0, 333.0, 100.0, 22.0 ]
				}

			}
, 			{
				"box" : 				{
					"id" : "obj-47",
					"maxclass" : "newobj",
					"numinlets" : 1,
					"numoutlets" : 1,
					"outlettype" : [ "" ],
					"patching_rect" : [ 2313.0, 278.0, 104.0, 22.0 ],
					"text" : "udpreceive 12000"
				}

			}
, 			{
				"box" : 				{
					"id" : "obj-28",
					"maxclass" : "newobj",
					"numinlets" : 1,
					"numoutlets" : 1,
					"outlettype" : [ "bang" ],
					"patching_rect" : [ 1049.0, 631.0, 22.0, 22.0 ],
					"text" : "t b"
				}

			}
, 			{
				"box" : 				{
					"id" : "obj-44",
					"maxclass" : "newobj",
					"numinlets" : 2,
					"numoutlets" : 2,
					"outlettype" : [ "", "" ],
					"patching_rect" : [ 534.0, 889.0, 39.0, 22.0 ],
					"text" : "zl.join"
				}

			}
, 			{
				"box" : 				{
					"id" : "obj-43",
					"maxclass" : "newobj",
					"numinlets" : 2,
					"numoutlets" : 2,
					"outlettype" : [ "", "" ],
					"patching_rect" : [ 802.0, 853.0, 39.0, 22.0 ],
					"text" : "zl.join"
				}

			}
, 			{
				"box" : 				{
					"id" : "obj-40",
					"maxclass" : "newobj",
					"numinlets" : 2,
					"numoutlets" : 2,
					"outlettype" : [ "", "" ],
					"patching_rect" : [ 868.0, 820.0, 68.0, 22.0 ],
					"text" : "zl.group 64"
				}

			}
, 			{
				"box" : 				{
					"id" : "obj-37",
					"maxclass" : "newobj",
					"numinlets" : 2,
					"numoutlets" : 2,
					"outlettype" : [ "", "" ],
					"patching_rect" : [ 651.0, 820.0, 68.0, 22.0 ],
					"text" : "zl.group 64"
				}

			}
, 			{
				"box" : 				{
					"id" : "obj-30",
					"maxclass" : "newobj",
					"numinlets" : 2,
					"numoutlets" : 2,
					"outlettype" : [ "", "" ],
					"patching_rect" : [ 329.0, 828.0, 68.0, 22.0 ],
					"text" : "zl.group 64"
				}

			}
, 			{
				"box" : 				{
					"id" : "obj-24",
					"maxclass" : "newobj",
					"numinlets" : 2,
					"numoutlets" : 2,
					"outlettype" : [ "", "" ],
					"patching_rect" : [ 286.0, 898.0, 39.0, 22.0 ],
					"text" : "zl.join"
				}

			}
, 			{
				"box" : 				{
					"id" : "obj-17",
					"maxclass" : "newobj",
					"numinlets" : 2,
					"numoutlets" : 2,
					"outlettype" : [ "", "" ],
					"patching_rect" : [ 221.0, 828.0, 68.0, 22.0 ],
					"text" : "zl.group 64"
				}

			}
, 			{
				"box" : 				{
					"id" : "obj-35",
					"maxclass" : "newobj",
					"numinlets" : 1,
					"numoutlets" : 1,
					"outlettype" : [ "" ],
					"patching_rect" : [ 868.0, 760.0, 91.0, 22.0 ],
					"text" : "vexpr $f1 / 255."
				}

			}
, 			{
				"box" : 				{
					"id" : "obj-34",
					"maxclass" : "newobj",
					"numinlets" : 1,
					"numoutlets" : 1,
					"outlettype" : [ "" ],
					"patching_rect" : [ 651.0, 760.0, 91.0, 22.0 ],
					"text" : "vexpr $f1 / 255."
				}

			}
, 			{
				"box" : 				{
					"id" : "obj-33",
					"maxclass" : "newobj",
					"numinlets" : 1,
					"numoutlets" : 1,
					"outlettype" : [ "" ],
					"patching_rect" : [ 433.0, 756.0, 91.0, 22.0 ],
					"text" : "vexpr $f1 / 255."
				}

			}
, 			{
				"box" : 				{
					"id" : "obj-32",
					"maxclass" : "newobj",
					"numinlets" : 1,
					"numoutlets" : 1,
					"outlettype" : [ "" ],
					"patching_rect" : [ 221.0, 760.0, 91.0, 22.0 ],
					"text" : "vexpr $f1 / 255."
				}

			}
, 			{
				"box" : 				{
					"fontname" : "Arial",
					"fontsize" : 13.0,
					"id" : "obj-41",
					"maxclass" : "newobj",
					"numinlets" : 1,
					"numoutlets" : 2,
					"outlettype" : [ "", "" ],
					"patching_rect" : [ 868.0, 718.0, 190.0, 23.0 ],
					"text" : "jit.spill @plane 3 @listlength 64"
				}

			}
, 			{
				"box" : 				{
					"fontname" : "Arial",
					"fontsize" : 13.0,
					"id" : "obj-42",
					"maxclass" : "newobj",
					"numinlets" : 1,
					"numoutlets" : 2,
					"outlettype" : [ "", "" ],
					"patching_rect" : [ 651.0, 718.0, 190.0, 23.0 ],
					"text" : "jit.spill @plane 2 @listlength 64"
				}

			}
, 			{
				"box" : 				{
					"fontname" : "Arial",
					"fontsize" : 13.0,
					"id" : "obj-31",
					"maxclass" : "newobj",
					"numinlets" : 1,
					"numoutlets" : 2,
					"outlettype" : [ "", "" ],
					"patching_rect" : [ 433.0, 718.0, 190.0, 23.0 ],
					"text" : "jit.spill @plane 1 @listlength 64"
				}

			}
, 			{
				"box" : 				{
					"format" : 6,
					"id" : "obj-20",
					"maxclass" : "flonum",
					"numinlets" : 1,
					"numoutlets" : 2,
					"outlettype" : [ "", "bang" ],
					"parameter_enable" : 0,
					"patching_rect" : [ 1529.0, 426.0, 62.0, 22.0 ],
					"style" : "default",
					"triscale" : 0.9
				}

			}
, 			{
				"box" : 				{
					"format" : 6,
					"id" : "obj-21",
					"maxclass" : "flonum",
					"numinlets" : 1,
					"numoutlets" : 2,
					"outlettype" : [ "", "bang" ],
					"parameter_enable" : 0,
					"patching_rect" : [ 1470.0, 426.0, 54.0, 22.0 ],
					"style" : "default",
					"triscale" : 0.9
				}

			}
, 			{
				"box" : 				{
					"id" : "obj-23",
					"maxclass" : "newobj",
					"numinlets" : 1,
					"numoutlets" : 2,
					"outlettype" : [ "float", "float" ],
					"patching_rect" : [ 1470.0, 399.0, 77.5, 22.0 ],
					"style" : "default",
					"text" : "unpack 0. 0."
				}

			}
, 			{
				"box" : 				{
					"fontname" : "Arial",
					"fontsize" : 12.0,
					"id" : "obj-3",
					"maxclass" : "newobj",
					"numinlets" : 1,
					"numoutlets" : 0,
					"patching_rect" : [ 714.0, 1023.0, 34.0, 22.0 ],
					"text" : "print"
				}

			}
, 			{
				"box" : 				{
					"fontname" : "Arial",
					"fontsize" : 12.0,
					"id" : "obj-10",
					"maxclass" : "newobj",
					"numinlets" : 1,
					"numoutlets" : 2,
					"outlettype" : [ "bang", "" ],
					"patching_rect" : [ 615.0, 1016.0, 33.0, 22.0 ],
					"text" : "t b s"
				}

			}
, 			{
				"box" : 				{
					"fontname" : "Arial",
					"fontsize" : 12.0,
					"id" : "obj-14",
					"maxclass" : "newobj",
					"numinlets" : 1,
					"numoutlets" : 3,
					"outlettype" : [ "", "", "OSCTimeTag" ],
					"patching_rect" : [ 615.0, 1057.0, 143.0, 22.0 ],
					"text" : "OpenSoundControl 2000"
				}

			}
, 			{
				"box" : 				{
					"fontface" : 0,
					"fontname" : "Arial",
					"fontsize" : 12.0,
					"id" : "obj-16",
					"maxclass" : "newobj",
					"numinlets" : 1,
					"numoutlets" : 1,
					"outlettype" : [ "" ],
					"patching_rect" : [ 615.0, 979.0, 193.0, 22.0 ],
					"text" : "prepend /wekinator/control/outputs"
				}

			}
, 			{
				"box" : 				{
					"fontname" : "Arial",
					"fontsize" : 12.0,
					"id" : "obj-19",
					"maxclass" : "newobj",
					"numinlets" : 1,
					"numoutlets" : 0,
					"patching_rect" : [ 615.0, 1101.0, 138.0, 22.0 ],
					"text" : "udpsend 127.0.0.1 6448"
				}

			}
, 			{
				"box" : 				{
					"id" : "obj-69",
					"maxclass" : "newobj",
					"numinlets" : 1,
					"numoutlets" : 1,
					"outlettype" : [ "bang" ],
					"patching_rect" : [ 918.0, 303.222238063812256, 22.0, 22.0 ],
					"text" : "t b"
				}

			}
, 			{
				"box" : 				{
					"id" : "obj-64",
					"maxclass" : "newobj",
					"numinlets" : 1,
					"numoutlets" : 1,
					"outlettype" : [ "" ],
					"patching_rect" : [ 658.974319696426392, 357.692286372184753, 88.0, 22.0 ],
					"text" : "sprintf %s.mp3"
				}

			}
, 			{
				"box" : 				{
					"id" : "obj-54",
					"maxclass" : "newobj",
					"numinlets" : 1,
					"numoutlets" : 1,
					"outlettype" : [ "" ],
					"patching_rect" : [ 658.974319696426392, 408.974334597587585, 72.0, 22.0 ],
					"text" : "prepend set"
				}

			}
, 			{
				"box" : 				{
					"id" : "obj-39",
					"maxclass" : "newobj",
					"numinlets" : 2,
					"numoutlets" : 2,
					"outlettype" : [ "", "" ],
					"patching_rect" : [ 91.5, 265.0, 47.0, 22.0 ],
					"text" : "zl nth 1"
				}

			}
, 			{
				"box" : 				{
					"id" : "obj-38",
					"maxclass" : "newobj",
					"numinlets" : 1,
					"numoutlets" : 5,
					"outlettype" : [ "", "", "", "", "" ],
					"patching_rect" : [ 45.0, 220.00001049041748, 110.0, 22.0 ],
					"text" : "regexp ^(.*)_...jpg$"
				}

			}
, 			{
				"box" : 				{
					"id" : "obj-36",
					"maxclass" : "newobj",
					"numinlets" : 1,
					"numoutlets" : 5,
					"outlettype" : [ "", "", "", "", "" ],
					"patching_rect" : [ 58.0, 171.111119270324707, 86.0, 22.0 ],
					"text" : "regexp ([^/]+)$"
				}

			}
, 			{
				"box" : 				{
					"format" : 6,
					"id" : "obj-84",
					"maxclass" : "flonum",
					"numinlets" : 1,
					"numoutlets" : 2,
					"outlettype" : [ "", "bang" ],
					"parameter_enable" : 0,
					"patching_rect" : [ 1037.0, 478.0, 62.0, 22.0 ],
					"style" : "default",
					"triscale" : 0.9
				}

			}
, 			{
				"box" : 				{
					"format" : 6,
					"id" : "obj-85",
					"maxclass" : "flonum",
					"numinlets" : 1,
					"numoutlets" : 2,
					"outlettype" : [ "", "bang" ],
					"parameter_enable" : 0,
					"patching_rect" : [ 978.0, 478.0, 54.0, 22.0 ],
					"style" : "default",
					"triscale" : 0.9
				}

			}
, 			{
				"box" : 				{
					"id" : "obj-86",
					"maxclass" : "newobj",
					"numinlets" : 1,
					"numoutlets" : 2,
					"outlettype" : [ "float", "float" ],
					"patching_rect" : [ 978.0, 451.0, 77.5, 22.0 ],
					"style" : "default",
					"text" : "unpack 0. 0."
				}

			}
, 			{
				"box" : 				{
					"id" : "obj-25",
					"maxclass" : "ezdac~",
					"numinlets" : 2,
					"numoutlets" : 0,
					"patching_rect" : [ 1014.0, 341.5, 45.0, 45.0 ]
				}

			}
, 			{
				"box" : 				{
					"id" : "obj-29",
					"maxclass" : "number",
					"numinlets" : 1,
					"numoutlets" : 2,
					"outlettype" : [ "", "bang" ],
					"parameter_enable" : 0,
					"patching_rect" : [ 862.0, 519.0, 50.0, 22.0 ]
				}

			}
, 			{
				"box" : 				{
					"id" : "obj-27",
					"maxclass" : "newobj",
					"numinlets" : 5,
					"numoutlets" : 4,
					"outlettype" : [ "int", "", "", "int" ],
					"patching_rect" : [ 862.0, 488.0, 61.0, 22.0 ],
					"text" : "counter"
				}

			}
, 			{
				"box" : 				{
					"id" : "obj-26",
					"maxclass" : "number",
					"numinlets" : 1,
					"numoutlets" : 2,
					"outlettype" : [ "", "bang" ],
					"parameter_enable" : 0,
					"patching_rect" : [ 1260.0, 426.0, 193.0, 22.0 ]
				}

			}
, 			{
				"box" : 				{
					"id" : "obj-22",
					"maxclass" : "number",
					"numinlets" : 1,
					"numoutlets" : 2,
					"outlettype" : [ "", "bang" ],
					"parameter_enable" : 0,
					"patching_rect" : [ 1620.0, 426.0, 50.0, 22.0 ]
				}

			}
, 			{
				"box" : 				{
					"id" : "obj-18",
					"maxclass" : "number",
					"numinlets" : 1,
					"numoutlets" : 2,
					"outlettype" : [ "", "bang" ],
					"parameter_enable" : 0,
					"patching_rect" : [ 1207.0, 426.0, 50.0, 22.0 ]
				}

			}
, 			{
				"box" : 				{
					"id" : "obj-15",
					"maxclass" : "number",
					"numinlets" : 1,
					"numoutlets" : 2,
					"outlettype" : [ "", "bang" ],
					"parameter_enable" : 0,
					"patching_rect" : [ 1154.0, 426.0, 50.0, 22.0 ]
				}

			}
, 			{
				"box" : 				{
					"id" : "obj-12",
					"maxclass" : "number",
					"numinlets" : 1,
					"numoutlets" : 2,
					"outlettype" : [ "", "bang" ],
					"parameter_enable" : 0,
					"patching_rect" : [ 1099.0, 426.0, 50.0, 22.0 ]
				}

			}
, 			{
				"box" : 				{
					"id" : "obj-6",
					"maxclass" : "newobj",
					"numinlets" : 1,
					"numoutlets" : 8,
					"outlettype" : [ "", "", "", "", "", "", "", "" ],
					"patching_rect" : [ 1072.0, 353.0, 103.0, 22.0 ],
					"text" : "analyzer~"
				}

			}
, 			{
				"box" : 				{
					"id" : "obj-189",
					"linecount" : 3,
					"maxclass" : "comment",
					"numinlets" : 1,
					"numoutlets" : 0,
					"patching_rect" : [ 3683.333508968353271, 357.666659832000732, 116.666663885116577, 48.0 ],
					"text" : "MUSIC AUTOPLAYER FROM FOLDER!! :)"
				}

			}
, 			{
				"box" : 				{
					"id" : "obj-173",
					"maxclass" : "toggle",
					"numinlets" : 1,
					"numoutlets" : 1,
					"outlettype" : [ "int" ],
					"parameter_enable" : 0,
					"patching_rect" : [ 3653.333507537841797, 667.666674613952637, 24.0, 24.0 ]
				}

			}
, 			{
				"box" : 				{
					"id" : "obj-174",
					"maxclass" : "newobj",
					"numinlets" : 2,
					"numoutlets" : 3,
					"outlettype" : [ "signal", "signal", "bang" ],
					"patching_rect" : [ 3500.000166893005371, 614.333338737487793, 57.0, 22.0 ],
					"text" : "sfplay~ 2"
				}

			}
, 			{
				"box" : 				{
					"id" : "obj-175",
					"maxclass" : "newobj",
					"numinlets" : 1,
					"numoutlets" : 1,
					"outlettype" : [ "" ],
					"patching_rect" : [ 3500.000166893005371, 567.666669845581055, 83.0, 22.0 ],
					"text" : "prepend open"
				}

			}
, 			{
				"box" : 				{
					"id" : "obj-176",
					"maxclass" : "ezdac~",
					"numinlets" : 2,
					"numoutlets" : 0,
					"patching_rect" : [ 3500.000166893005371, 687.666675567626953, 45.0, 45.0 ]
				}

			}
, 			{
				"box" : 				{
					"id" : "obj-177",
					"maxclass" : "newobj",
					"numinlets" : 2,
					"numoutlets" : 2,
					"outlettype" : [ "bang", "" ],
					"patching_rect" : [ 3930.000187397003174, 631.000006198883057, 63.0, 22.0 ],
					"text" : "select 100"
				}

			}
, 			{
				"box" : 				{
					"id" : "obj-178",
					"maxclass" : "comment",
					"numinlets" : 1,
					"numoutlets" : 0,
					"patching_rect" : [ 3890.000185489654541, 581.000003814697266, 84.0, 20.0 ],
					"text" : "reset counter"
				}

			}
, 			{
				"box" : 				{
					"id" : "obj-179",
					"maxclass" : "button",
					"numinlets" : 1,
					"numoutlets" : 1,
					"outlettype" : [ "bang" ],
					"parameter_enable" : 0,
					"patching_rect" : [ 3840.00018310546875, 577.666670322418213, 24.0, 24.0 ]
				}

			}
, 			{
				"box" : 				{
					"id" : "obj-180",
					"maxclass" : "number",
					"numinlets" : 1,
					"numoutlets" : 2,
					"outlettype" : [ "", "bang" ],
					"parameter_enable" : 0,
					"patching_rect" : [ 3766.66684627532959, 617.666672229766846, 50.0, 22.0 ]
				}

			}
, 			{
				"box" : 				{
					"id" : "obj-181",
					"maxclass" : "button",
					"numinlets" : 1,
					"numoutlets" : 1,
					"outlettype" : [ "bang" ],
					"parameter_enable" : 0,
					"patching_rect" : [ 3766.66684627532959, 537.66666841506958, 24.0, 24.0 ]
				}

			}
, 			{
				"box" : 				{
					"id" : "obj-182",
					"maxclass" : "newobj",
					"numinlets" : 5,
					"numoutlets" : 4,
					"outlettype" : [ "int", "", "", "int" ],
					"patching_rect" : [ 3766.66684627532959, 581.000003814697266, 61.0, 22.0 ],
					"text" : "counter"
				}

			}
, 			{
				"box" : 				{
					"id" : "obj-183",
					"maxclass" : "number",
					"numinlets" : 1,
					"numoutlets" : 2,
					"outlettype" : [ "", "bang" ],
					"parameter_enable" : 0,
					"patching_rect" : [ 3616.666839122772217, 567.666669845581055, 50.0, 22.0 ]
				}

			}
, 			{
				"box" : 				{
					"id" : "obj-184",
					"maxclass" : "newobj",
					"numinlets" : 2,
					"numoutlets" : 2,
					"outlettype" : [ "", "" ],
					"patching_rect" : [ 3616.666839122772217, 537.66666841506958, 85.0, 22.0 ],
					"text" : "route populate"
				}

			}
, 			{
				"box" : 				{
					"id" : "obj-185",
					"maxclass" : "newobj",
					"numinlets" : 1,
					"numoutlets" : 1,
					"outlettype" : [ "" ],
					"patching_rect" : [ 3380.000161170959473, 440.999997138977051, 85.0, 22.0 ],
					"text" : "prepend prefix"
				}

			}
, 			{
				"box" : 				{
					"id" : "obj-186",
					"maxclass" : "comment",
					"numinlets" : 1,
					"numoutlets" : 0,
					"patching_rect" : [ 3380.000161170959473, 377.666660785675049, 102.0, 20.0 ],
					"text" : "drop music folder"
				}

			}
, 			{
				"box" : 				{
					"id" : "obj-187",
					"maxclass" : "dropfile",
					"numinlets" : 1,
					"numoutlets" : 2,
					"outlettype" : [ "", "" ],
					"patching_rect" : [ 3380.000161170959473, 357.666659832000732, 103.0, 58.0 ]
				}

			}
, 			{
				"box" : 				{
					"autopopulate" : 1,
					"id" : "obj-188",
					"items" : [ "s001.mp3", ",", "s002.mp3", ",", "s003.mp3", ",", "s004.mp3", ",", "s005.mp3", ",", "s006_1.mp3", ",", "s006_2.mp3", ",", "s006_3.mp3", ",", "s007.mp3", ",", "s008.mp3", ",", "s009.mp3", ",", "s010_1.mp3", ",", "s010_2.mp3", ",", "s011.mp3", ",", "s012.mp3", ",", "s013.mp3", ",", "s014_1.mp3", ",", "s014_2.mp3", ",", "s015.mp3", ",", "s016.mp3", ",", "s017.mp3", ",", "s018.mp3", ",", "s019.mp3", ",", "s020.mp3", ",", "s021_1.mp3", ",", "s021_2.mp3", ",", "s021_3.mp3", ",", "s022.mp3", ",", "s023.mp3", ",", "s024.mp3", ",", "s025.mp3", ",", "s026.mp3", ",", "s027.mp3", ",", "s028.mp3", ",", "s029.mp3", ",", "s030.mp3", ",", "s031.mp3", ",", "s032.mp3", ",", "s033.mp3", ",", "s034.mp3", ",", "s035.mp3", ",", "s036.mp3", ",", "s037.mp3", ",", "s038.mp3", ",", "s039.mp3", ",", "s040.mp3", ",", "s041.mp3", ",", "s042.mp3", ",", "s043.mp3", ",", "s044.mp3", ",", "s045.mp3", ",", "s046.mp3", ",", "s047.mp3", ",", "s048.mp3", ",", "s049.mp3", ",", "s050.mp3", ",", "s051.mp3", ",", "s052.mp3", ",", "s053.mp3", ",", "s054.mp3", ",", "s055.mp3", ",", "s056.mp3", ",", "s057.mp3", ",", "s058.mp3", ",", "s059.mp3", ",", "s060.mp3", ",", "s061.mp3", ",", "s062.mp3", ",", "s063.mp3", ",", "s064_1.mp3", ",", "s064_2.mp3", ",", "s065.mp3", ",", "s066.mp3", ",", "s067.mp3", ",", "s068.mp3", ",", "s069.mp3", ",", "s070_1.mp3", ",", "s070_2.mp3", ",", "s071.mp3", ",", "s072.mp3", ",", "s073.mp3", ",", "s074.mp3", ",", "s075.mp3", ",", "s076.mp3", ",", "s077.mp3", ",", "s078.mp3", ",", "s079.mp3", ",", "s080.mp3", ",", "s081.mp3", ",", "s082.mp3", ",", "s083.mp3", ",", "s084.mp3", ",", "s085.mp3", ",", "s086.mp3", ",", "s087.mp3", ",", "s088.mp3", ",", "s089.mp3", ",", "s090_1.mp3", ",", "s090_2.mp3", ",", "s091.mp3", ",", "s092.mp3", ",", "s093.mp3", ",", "s094.mp3", ",", "s095.mp3", ",", "s096.mp3", ",", "s097.mp3", ",", "s098.mp3", ",", "s099.mp3", ",", "s100.mp3" ],
					"maxclass" : "umenu",
					"numinlets" : 1,
					"numoutlets" : 3,
					"outlettype" : [ "int", "", "" ],
					"parameter_enable" : 0,
					"patching_rect" : [ 3380.000161170959473, 501.0, 252.0, 22.0 ],
					"prefix" : "~/Programming/Music-Synthesis/music-clips/"
				}

			}
, 			{
				"box" : 				{
					"id" : "obj-172",
					"maxclass" : "toggle",
					"numinlets" : 1,
					"numoutlets" : 1,
					"outlettype" : [ "int" ],
					"parameter_enable" : 0,
					"patching_rect" : [ 918.0, 332.222238063812256, 24.0, 24.0 ]
				}

			}
, 			{
				"box" : 				{
					"id" : "obj-166",
					"maxclass" : "newobj",
					"numinlets" : 2,
					"numoutlets" : 2,
					"outlettype" : [ "signal", "bang" ],
					"patching_rect" : [ 1072.0, 281.0, 47.0, 22.0 ],
					"text" : "sfplay~"
				}

			}
, 			{
				"box" : 				{
					"id" : "obj-165",
					"maxclass" : "newobj",
					"numinlets" : 1,
					"numoutlets" : 1,
					"outlettype" : [ "" ],
					"patching_rect" : [ 1072.0, 235.0, 83.0, 22.0 ],
					"text" : "prepend open"
				}

			}
, 			{
				"box" : 				{
					"id" : "obj-148",
					"maxclass" : "newobj",
					"numinlets" : 2,
					"numoutlets" : 2,
					"outlettype" : [ "bang", "" ],
					"patching_rect" : [ 1505.0, 298.0, 63.0, 22.0 ],
					"text" : "select 100"
				}

			}
, 			{
				"box" : 				{
					"id" : "obj-151",
					"maxclass" : "comment",
					"numinlets" : 1,
					"numoutlets" : 0,
					"patching_rect" : [ 1462.0, 249.0, 84.0, 20.0 ],
					"text" : "reset counter"
				}

			}
, 			{
				"box" : 				{
					"id" : "obj-152",
					"maxclass" : "button",
					"numinlets" : 1,
					"numoutlets" : 1,
					"outlettype" : [ "bang" ],
					"parameter_enable" : 0,
					"patching_rect" : [ 1414.0, 247.0, 24.0, 24.0 ]
				}

			}
, 			{
				"box" : 				{
					"id" : "obj-153",
					"maxclass" : "number",
					"numinlets" : 1,
					"numoutlets" : 2,
					"outlettype" : [ "", "bang" ],
					"parameter_enable" : 0,
					"patching_rect" : [ 1340.0, 286.0, 50.0, 22.0 ]
				}

			}
, 			{
				"box" : 				{
					"id" : "obj-154",
					"maxclass" : "button",
					"numinlets" : 1,
					"numoutlets" : 1,
					"outlettype" : [ "bang" ],
					"parameter_enable" : 0,
					"patching_rect" : [ 1340.0, 205.0, 24.0, 24.0 ]
				}

			}
, 			{
				"box" : 				{
					"id" : "obj-155",
					"maxclass" : "newobj",
					"numinlets" : 5,
					"numoutlets" : 4,
					"outlettype" : [ "int", "", "", "int" ],
					"patching_rect" : [ 1340.0, 248.0, 61.0, 22.0 ],
					"text" : "counter"
				}

			}
, 			{
				"box" : 				{
					"id" : "obj-156",
					"maxclass" : "number",
					"numinlets" : 1,
					"numoutlets" : 2,
					"outlettype" : [ "", "bang" ],
					"parameter_enable" : 0,
					"patching_rect" : [ 1189.0, 235.0, 50.0, 22.0 ]
				}

			}
, 			{
				"box" : 				{
					"id" : "obj-157",
					"maxclass" : "newobj",
					"numinlets" : 2,
					"numoutlets" : 2,
					"outlettype" : [ "", "" ],
					"patching_rect" : [ 1189.0, 206.0, 85.0, 22.0 ],
					"text" : "route populate"
				}

			}
, 			{
				"box" : 				{
					"id" : "obj-138",
					"maxclass" : "newobj",
					"numinlets" : 2,
					"numoutlets" : 2,
					"outlettype" : [ "bang", "" ],
					"patching_rect" : [ 722.222256660461426, 283.333346843719482, 63.0, 22.0 ],
					"text" : "select 300"
				}

			}
, 			{
				"box" : 				{
					"id" : "obj-127",
					"maxclass" : "comment",
					"numinlets" : 1,
					"numoutlets" : 0,
					"patching_rect" : [ 680.000032424926758, 234.444455623626709, 84.0, 20.0 ],
					"text" : "reset counter"
				}

			}
, 			{
				"box" : 				{
					"id" : "obj-128",
					"maxclass" : "button",
					"numinlets" : 1,
					"numoutlets" : 1,
					"outlettype" : [ "bang" ],
					"parameter_enable" : 0,
					"patching_rect" : [ 631.111141204833984, 232.444455623626709, 24.0, 24.0 ]
				}

			}
, 			{
				"box" : 				{
					"id" : "obj-129",
					"maxclass" : "number",
					"numinlets" : 1,
					"numoutlets" : 2,
					"outlettype" : [ "", "bang" ],
					"parameter_enable" : 0,
					"patching_rect" : [ 557.777804374694824, 271.111124038696289, 50.0, 22.0 ]
				}

			}
, 			{
				"box" : 				{
					"id" : "obj-130",
					"maxclass" : "button",
					"numinlets" : 1,
					"numoutlets" : 1,
					"outlettype" : [ "bang" ],
					"parameter_enable" : 0,
					"patching_rect" : [ 557.777804374694824, 190.111120223999023, 24.0, 24.0 ]
				}

			}
, 			{
				"box" : 				{
					"id" : "obj-131",
					"maxclass" : "newobj",
					"numinlets" : 5,
					"numoutlets" : 4,
					"outlettype" : [ "int", "", "", "int" ],
					"patching_rect" : [ 557.777804374694824, 233.333344459533691, 61.0, 22.0 ],
					"text" : "counter"
				}

			}
, 			{
				"box" : 				{
					"id" : "obj-4",
					"maxclass" : "newobj",
					"numinlets" : 1,
					"numoutlets" : 1,
					"outlettype" : [ "" ],
					"patching_rect" : [ 956.0, 109.0, 85.0, 22.0 ],
					"text" : "prepend prefix"
				}

			}
, 			{
				"box" : 				{
					"id" : "obj-5",
					"maxclass" : "comment",
					"numinlets" : 1,
					"numoutlets" : 0,
					"patching_rect" : [ 956.0, 47.0, 102.0, 20.0 ],
					"text" : "drop music folder"
				}

			}
, 			{
				"box" : 				{
					"id" : "obj-7",
					"maxclass" : "dropfile",
					"numinlets" : 1,
					"numoutlets" : 2,
					"outlettype" : [ "", "" ],
					"patching_rect" : [ 956.0, 27.0, 103.0, 58.0 ]
				}

			}
, 			{
				"box" : 				{
					"autopopulate" : 1,
					"id" : "obj-9",
					"items" : [ "s001.mp3", ",", "s002.mp3", ",", "s003.mp3", ",", "s004.mp3", ",", "s005.mp3", ",", "s006_1.mp3", ",", "s006_2.mp3", ",", "s006_3.mp3", ",", "s007.mp3", ",", "s008.mp3", ",", "s009.mp3", ",", "s010_1.mp3", ",", "s010_2.mp3", ",", "s011.mp3", ",", "s012.mp3", ",", "s013.mp3", ",", "s014_1.mp3", ",", "s014_2.mp3", ",", "s015.mp3", ",", "s016.mp3", ",", "s017.mp3", ",", "s018.mp3", ",", "s019.mp3", ",", "s020.mp3", ",", "s021_1.mp3", ",", "s021_2.mp3", ",", "s021_3.mp3", ",", "s022.mp3", ",", "s023.mp3", ",", "s024.mp3", ",", "s025.mp3", ",", "s026.mp3", ",", "s027.mp3", ",", "s028.mp3", ",", "s029.mp3", ",", "s030.mp3", ",", "s031.mp3", ",", "s032.mp3", ",", "s033.mp3", ",", "s034.mp3", ",", "s035.mp3", ",", "s036.mp3", ",", "s037.mp3", ",", "s038.mp3", ",", "s039.mp3", ",", "s040.mp3", ",", "s041.mp3", ",", "s042.mp3", ",", "s043.mp3", ",", "s044.mp3", ",", "s045.mp3", ",", "s046.mp3", ",", "s047.mp3", ",", "s048.mp3", ",", "s049.mp3", ",", "s050.mp3", ",", "s051.mp3", ",", "s052.mp3", ",", "s053.mp3", ",", "s054.mp3", ",", "s055.mp3", ",", "s056.mp3", ",", "s057.mp3", ",", "s058.mp3", ",", "s059.mp3", ",", "s060.mp3", ",", "s061.mp3", ",", "s062.mp3", ",", "s063.mp3", ",", "s064_1.mp3", ",", "s064_2.mp3", ",", "s065.mp3", ",", "s066.mp3", ",", "s067.mp3", ",", "s068.mp3", ",", "s069.mp3", ",", "s070_1.mp3", ",", "s070_2.mp3", ",", "s071.mp3", ",", "s072.mp3", ",", "s073.mp3", ",", "s074.mp3", ",", "s075.mp3", ",", "s076.mp3", ",", "s077.mp3", ",", "s078.mp3", ",", "s079.mp3", ",", "s080.mp3", ",", "s081.mp3", ",", "s082.mp3", ",", "s083.mp3", ",", "s084.mp3", ",", "s085.mp3", ",", "s086.mp3", ",", "s087.mp3", ",", "s088.mp3", ",", "s089.mp3", ",", "s090_1.mp3", ",", "s090_2.mp3", ",", "s091.mp3", ",", "s092.mp3", ",", "s093.mp3", ",", "s094.mp3", ",", "s095.mp3", ",", "s096.mp3", ",", "s097.mp3", ",", "s098.mp3", ",", "s099.mp3", ",", "s100.mp3" ],
					"maxclass" : "umenu",
					"numinlets" : 1,
					"numoutlets" : 3,
					"outlettype" : [ "int", "", "" ],
					"parameter_enable" : 0,
					"patching_rect" : [ 956.0, 169.0, 252.0, 22.0 ],
					"prefix" : "~/Programming/MusicVis/music_clips/"
				}

			}
, 			{
				"box" : 				{
					"fontname" : "Arial",
					"fontsize" : 12.0,
					"id" : "obj-11",
					"maxclass" : "newobj",
					"numinlets" : 1,
					"numoutlets" : 0,
					"patching_rect" : [ 1325.609787702560425, 676.829284429550171, 34.0, 22.0 ],
					"text" : "print"
				}

			}
, 			{
				"box" : 				{
					"fontname" : "Arial",
					"fontsize" : 12.0,
					"id" : "obj-82",
					"maxclass" : "newobj",
					"numinlets" : 1,
					"numoutlets" : 2,
					"outlettype" : [ "bang", "" ],
					"patching_rect" : [ 1163.414661884307861, 659.756113290786743, 33.0, 22.0 ],
					"text" : "t b s"
				}

			}
, 			{
				"box" : 				{
					"fontname" : "Arial",
					"fontsize" : 12.0,
					"id" : "obj-77",
					"maxclass" : "newobj",
					"numinlets" : 1,
					"numoutlets" : 3,
					"outlettype" : [ "", "", "OSCTimeTag" ],
					"patching_rect" : [ 1163.414661884307861, 704.878065586090088, 143.0, 22.0 ],
					"text" : "OpenSoundControl 2000"
				}

			}
, 			{
				"box" : 				{
					"fontface" : 0,
					"fontname" : "Arial",
					"fontsize" : 12.0,
					"id" : "obj-74",
					"maxclass" : "newobj",
					"numinlets" : 1,
					"numoutlets" : 1,
					"outlettype" : [ "" ],
					"patching_rect" : [ 1163.414661884307861, 626.829283237457275, 118.0, 22.0 ],
					"text" : "prepend /wek/inputs"
				}

			}
, 			{
				"box" : 				{
					"fontname" : "Arial",
					"fontsize" : 12.0,
					"id" : "obj-58",
					"maxclass" : "newobj",
					"numinlets" : 5,
					"numoutlets" : 1,
					"outlettype" : [ "" ],
					"patching_rect" : [ 1163.414661884307861, 576.666694164276123, 95.0, 22.0 ],
					"text" : "pak 1. 1. 1. 1. 1."
				}

			}
, 			{
				"box" : 				{
					"fontname" : "Arial",
					"fontsize" : 12.0,
					"id" : "obj-53",
					"maxclass" : "newobj",
					"numinlets" : 1,
					"numoutlets" : 0,
					"patching_rect" : [ 1163.414661884307861, 748.780505657196045, 140.0, 22.0 ],
					"text" : "udpsend 127.0.0.1 6448"
				}

			}
, 			{
				"box" : 				{
					"id" : "obj-97",
					"maxclass" : "number",
					"numinlets" : 1,
					"numoutlets" : 2,
					"outlettype" : [ "", "bang" ],
					"parameter_enable" : 0,
					"patching_rect" : [ 406.666686058044434, 220.00001049041748, 50.0, 22.0 ]
				}

			}
, 			{
				"box" : 				{
					"id" : "obj-13",
					"maxclass" : "newobj",
					"numinlets" : 1,
					"numoutlets" : 1,
					"outlettype" : [ "" ],
					"patching_rect" : [ 173.333341598510742, 106.666671752929688, 85.0, 22.0 ],
					"text" : "prepend prefix"
				}

			}
, 			{
				"box" : 				{
					"id" : "obj-98",
					"maxclass" : "comment",
					"numinlets" : 1,
					"numoutlets" : 0,
					"patching_rect" : [ 173.333341598510742, 43.333335399627686, 102.0, 20.0 ],
					"text" : "drop image folder"
				}

			}
, 			{
				"box" : 				{
					"id" : "obj-99",
					"maxclass" : "jit.pwindow",
					"numinlets" : 1,
					"numoutlets" : 2,
					"outlettype" : [ "jit_matrix", "" ],
					"patching_rect" : [ 173.333341598510742, 332.222238063812256, 236.585371494293213, 167.073174715042114 ],
					"sync" : 1
				}

			}
, 			{
				"box" : 				{
					"id" : "obj-100",
					"maxclass" : "newobj",
					"numinlets" : 1,
					"numoutlets" : 2,
					"outlettype" : [ "bang", "" ],
					"patching_rect" : [ 173.333341598510742, 243.33334493637085, 29.5, 22.0 ],
					"text" : "t b l"
				}

			}
, 			{
				"box" : 				{
					"id" : "obj-8",
					"maxclass" : "newobj",
					"numinlets" : 1,
					"numoutlets" : 2,
					"outlettype" : [ "jit_matrix", "" ],
					"patching_rect" : [ 173.333341598510742, 287.777791500091553, 132.0, 22.0 ],
					"text" : "jit.matrix this 4 char 8 8"
				}

			}
, 			{
				"box" : 				{
					"id" : "obj-101",
					"maxclass" : "newobj",
					"numinlets" : 1,
					"numoutlets" : 1,
					"outlettype" : [ "" ],
					"patching_rect" : [ 173.333341598510742, 203.333343029022217, 121.0, 22.0 ],
					"text" : "prepend importmovie"
				}

			}
, 			{
				"box" : 				{
					"id" : "obj-102",
					"maxclass" : "newobj",
					"numinlets" : 2,
					"numoutlets" : 2,
					"outlettype" : [ "", "" ],
					"patching_rect" : [ 406.666686058044434, 191.111120223999023, 85.0, 22.0 ],
					"text" : "route populate"
				}

			}
, 			{
				"box" : 				{
					"id" : "obj-2",
					"maxclass" : "dropfile",
					"numinlets" : 1,
					"numoutlets" : 2,
					"outlettype" : [ "", "" ],
					"patching_rect" : [ 173.333341598510742, 24.444445610046387, 103.0, 58.0 ]
				}

			}
, 			{
				"box" : 				{
					"autopopulate" : 1,
					"id" : "obj-1",
					"items" : [ "s001_AJ.jpg", ",", "s001_AS.jpg", ",", "s001_HVT.jpg", ",", "s001_JD.jpg", ",", "s001_KR.jpg", ",", "s001_NA.jpg", ",", "s001_NL.jpg", ",", "s002_AJ.jpg", ",", "s002_AS.jpg", ",", "s002_JD.jpg", ",", "s002_KR.jpg", ",", "s002_NA.jpg", ",", "s002_NL.jpg", ",", "s003_AH.jpg", ",", "s003_AJ.jpg", ",", "s003_AS.jpg", ",", "s003_JD.jpg", ",", "s003_KR.jpg", ",", "s003_NA.jpg", ",", "s003_NL.jpg", ",", "s004_AJ.jpg", ",", "s004_AS.jpg", ",", "s004_JD.jpg", ",", "s004_KR.jpg", ",", "s004_NA.jpg", ",", "s004_NL.jpg", ",", "s005_AJ.jpg", ",", "s005_JD.jpg", ",", "s005_KR.jpg", ",", "s005_NA.jpg", ",", "s005_NL.jpg", ",", "s006_1_AS.jpg", ",", "s006_1_KR.jpg", ",", "s006_1_NA.jpg", ",", "s006_1_NL.jpg", ",", "s006_2_AS.jpg", ",", "s006_2_KR.jpg", ",", "s006_2_NA.jpg", ",", "s006_2_NL.jpg", ",", "s006_3_AS.jpg", ",", "s006_3_KR.jpg", ",", "s006_3_NA.jpg", ",", "s006_3_NL.jpg", ",", "s007_AH.jpg", ",", "s007_AS.jpg", ",", "s007_JD.jpg", ",", "s007_KR.jpg", ",", "s007_NA.jpg", ",", "s007_NL.jpg", ",", "s008_AS.jpg", ",", "s008_JD.jpg", ",", "s008_KR.jpg", ",", "s008_NA.jpg", ",", "s008_NL.jpg", ",", "s009_AH.jpg", ",", "s009_AS.jpg", ",", "s009_JD.jpg", ",", "s009_KR.jpg", ",", "s009_NA.jpg", ",", "s009_NL.jpg", ",", "s010_1_AS.jpg", ",", "s010_1_JD.jpg", ",", "s010_1_KR.jpg", ",", "s010_1_NA.jpg", ",", "s010_1_NL.jpg", ",", "s010_2_AS.jpg", ",", "s010_2_JD.jpg", ",", "s010_2_KR.jpg", ",", "s010_2_NA.jpg", ",", "s010_2_NL.jpg", ",", "s011_AS.jpg", ",", "s011_KR.jpg", ",", "s011_NA.jpg", ",", "s012_AH.jpg", ",", "s012_AS.jpg", ",", "s012_KR.jpeg", ",", "s012_NA.jpg", ",", "s013_AS.jpg", ",", "s013_KR.jpg", ",", "s013_NA.jpg", ",", "s014_1_AS.jpg", ",", "s014_1_KR.jpg", ",", "s014_1_NA.jpg", ",", "s014_2_AS.jpg", ",", "s014_2_KR.jpg", ",", "s014_2_NA.jpg", ",", "s015_AS.jpg", ",", "s015_KR.jpg", ",", "s015_NA.jpg", ",", "s016_AJ.jpg", ",", "s016_KR.jpg", ",", "s016_NA.jpg", ",", "s017_KR.jpg", ",", "s017_NA.jpg", ",", "s018_KR.jpg", ",", "s018_NA_1.jpg", ",", "s018_NA_2.jpg", ",", "s019_AH.jpg", ",", "s019_AJ.jpg", ",", "s019_KR.jpg", ",", "s019_NA.jpeg", ",", "s020_KR.jpg", ",", "s020_NA.jpg", ",", "s021_1_AJ.jpg", ",", "s021_1_KR.png", ",", "s021_1_NA.jpg", ",", "s021_2_AJ.jpg", ",", "s021_2_KR.jpg", ",", "s021_2_NA.jpg", ",", "s021_3_AJ.jpg", ",", "s021_3_KR.jpg", ",", "s021_3_NA.jpg", ",", "s022_KR.jpg", ",", "s022_NA.jpg", ",", "s023_KR.jpg", ",", "s023_NA.jpg", ",", "s024_KR.jpg", ",", "s024_NA.jpg", ",", "s025_AJ.jpg", ",", "s025_KR.jpg", ",", "s025_NA.jpg", ",", "s026_KR.jpg", ",", "s026_NA.jpg", ",", "s027_KR.jpg", ",", "s027_NA.jpg", ",", "s028_AJ.jpg", ",", "s028_KR.jpg", ",", "s028_NA.png", ",", "s029_AJ.jpeg", ",", "s029_KR.jpg", ",", "s029_NA.jpg", ",", "s030_KR.jpg", ",", "s030_NA.jpg", ",", "s031_AH.jpg", ",", "s031_KR.jpg", ",", "s031_NA.jpg", ",", "s032_AH.jpg", ",", "s032_KR.jpg", ",", "s032_NA.jpg", ",", "s033_AH.jpg", ",", "s033_AJ.jpg", ",", "s033_KR.jpg", ",", "s033_NA.jpg", ",", "s034_AJ.jpg", ",", "s034_KR.jpg", ",", "s034_NA.jpg", ",", "s035_KR.jpg", ",", "s035_NA.jpg", ",", "s036_AH.jpg", ",", "s036_KR.jpg", ",", "s036_NA.jpg", ",", "s037_AJ.jpg", ",", "s037_KR.jpg", ",", "s037_NA.jpg", ",", "s038_AJ.jpg", ",", "s038_KR.jpg", ",", "s038_NA.jpg", ",", "s039_KR.jpg", ",", "s039_NA.jpg", ",", "s040_KR.jpg", ",", "s040_NA.jpg", ",", "s041_KR.jpg", ",", "s041_NA.jpg", ",", "s042_KR.jpg", ",", "s042_NA.jpg", ",", "s043_KR.jpg", ",", "s043_NA.jpg", ",", "s044_KR.jpg", ",", "s044_NA.jpg", ",", "s045_KR.jpg", ",", "s045_NA.jpg", ",", "s046_AJ.jpg", ",", "s046_KR.jpg", ",", "s046_NA.jpg", ",", "s047_KR.jpg", ",", "s047_NA.jpg", ",", "s048_KR.jpg", ",", "s048_NA.jpg", ",", "s049_KR.jpg", ",", "s049_NA.jpg", ",", "s050_KR.jpg", ",", "s050_NA.jpg", ",", "s051_KR.jpg", ",", "s051_NA.jpg", ",", "s052_KR.jpg", ",", "s052_NA.jpg", ",", "s053_KR.jpg", ",", "s053_NA.jpg", ",", "s054_KR.jpg", ",", "s054_NA.jpg", ",", "s055_KR.jpg", ",", "s055_NA.jpg", ",", "s056_KR.jpg", ",", "s056_NA.jpeg", ",", "s057_KR.jpg", ",", "s057_NA.jpg", ",", "s058_AJ.jpg", ",", "s058_KR.jpg", ",", "s058_NA.jpg", ",", "s059_AJ.jpg", ",", "s059_KR.jpg", ",", "s059_NA.jpg", ",", "s060_KR.jpg", ",", "s060_NA.jpg", ",", "s061_AJ.jpg", ",", "s061_KR.jpg", ",", "s061_NA.jpg", ",", "s062_KR.jpg", ",", "s062_NA.jpg", ",", "s063_KR.jpg", ",", "s063_NA.jpg", ",", "s064_1_AJ.jpg", ",", "s064_1_KR.jpg", ",", "s064_1_NA.jpg", ",", "s064_2_AJ.jpg", ",", "s064_2_KR.jpg", ",", "s064_2_NA.jpg", ",", "s065_KR.jpg", ",", "s065_NA.jpg", ",", "s066_KR.jpg", ",", "s066_NA.jpg", ",", "s067_AJ.jpg", ",", "s067_KR.jpg", ",", "s067_NA.jpg", ",", "s068_KR.jpg", ",", "s068_NA.jpg", ",", "s069_AH.jpg", ",", "s069_KR.jpg", ",", "s069_NA.jpg", ",", "s070_1_KR.jpg", ",", "s070_1_NA.jpg", ",", "s070_2_KR.jpg", ",", "s070_2_NA.jpg", ",", "s071_KR.jpg", ",", "s071_NA.jpg", ",", "s072_KR.jpg", ",", "s072_NA.jpg", ",", "s073_KR.jpg", ",", "s073_NA.jpg", ",", "s074_KR.jpg", ",", "s074_NA.jpg", ",", "s075_KR.jpg", ",", "s075_NA.jpg", ",", "s076_KR.jpg", ",", "s076_NA.jpg", ",", "s077_KR.jpg", ",", "s077_NA.jpg", ",", "s078_KR.jpg", ",", "s078_NA.jpg", ",", "s079_KR.jpg", ",", "s079_NA.jpg", ",", "s080_KR.jpg", ",", "s080_NA.jpg", ",", "s081_KR.jpg", ",", "s081_NA.jpg", ",", "s082_KR.jpg", ",", "s082_NA.jpg", ",", "s083_AJ.jpg", ",", "s083_KR.jpg", ",", "s083_NA.jpg", ",", "s084_KR.jpg", ",", "s084_NA.jpg", ",", "s085_KR.jpg", ",", "s085_NA.jpg", ",", "s086_KR.jpg", ",", "s086_NA.jpg", ",", "s087_KR.jpg", ",", "s087_NA.jpg", ",", "s088_KR.jpg", ",", "s088_NA.jpg", ",", "s089_KR.jpg", ",", "s089_NA.jpg", ",", "s090_1_AJ.jpg", ",", "s090_1_KR.jpg", ",", "s090_1_NA.jpg", ",", "s090_2_AJ.jpg", ",", "s090_2_KR.jpg", ",", "s090_2_NA.jpg", ",", "s091_KR.jpg", ",", "s091_NA.jpg", ",", "s092_KR.jpg", ",", "s092_NA.jpg", ",", "s093_KR.jpg", ",", "s093_NA.jpg", ",", "s094_KR.jpg", ",", "s094_NA.jpg", ",", "s095_KR.jpg", ",", "s095_NA.jpg", ",", "s096_KR.jpg", ",", "s096_NA.jpg", ",", "s097_KR.jpg", ",", "s097_NA.jpg", ",", "s098_AJ.jpg", ",", "s098_KR.jpg", ",", "s098_NA.jpg", ",", "s099_KR.jpg", ",", "s099_NA.jpg", ",", "s100_AJ.jpg", ",", "s100_KR.jpg", ",", "s100_NA.jpg" ],
					"maxclass" : "umenu",
					"numinlets" : 1,
					"numoutlets" : 3,
					"outlettype" : [ "int", "", "" ],
					"parameter_enable" : 0,
					"patching_rect" : [ 173.333341598510742, 165.555563449859619, 252.0, 22.0 ],
					"prefix" : "~/Programming/MusicVis/music_images/"
				}

			}
, 			{
				"box" : 				{
					"fontname" : "Arial",
					"fontsize" : 13.0,
					"id" : "obj-52",
					"maxclass" : "newobj",
					"numinlets" : 1,
					"numoutlets" : 2,
					"outlettype" : [ "", "" ],
					"patching_rect" : [ 221.0, 718.0, 190.0, 23.0 ],
					"text" : "jit.spill @plane 0 @listlength 64"
				}

			}
, 			{
				"box" : 				{
					"bubble" : 1,
					"fontname" : "Arial",
					"fontsize" : 13.0,
					"id" : "obj-70",
					"maxclass" : "comment",
					"numinlets" : 1,
					"numoutlets" : 0,
					"patching_rect" : [ 91.5, 603.0, 155.0, 25.0 ],
					"text" : "view values in a plane"
				}

			}
, 			{
				"box" : 				{
					"id" : "obj-66",
					"maxclass" : "number",
					"numinlets" : 1,
					"numoutlets" : 2,
					"outlettype" : [ "", "bang" ],
					"parameter_enable" : 0,
					"patching_rect" : [ 31.0, 563.0, 50.0, 22.0 ]
				}

			}
, 			{
				"box" : 				{
					"cols" : 8,
					"colwidth" : 33,
					"fontface" : 0,
					"fontname" : "Arial",
					"fontsize" : 13.0,
					"hscroll" : 0,
					"id" : "obj-61",
					"maxclass" : "jit.cellblock",
					"numinlets" : 2,
					"numoutlets" : 4,
					"outlettype" : [ "list", "", "", "" ],
					"patching_rect" : [ 31.5, 655.0, 165.0, 91.0 ],
					"rows" : 8,
					"vscroll" : 0
				}

			}
, 			{
				"box" : 				{
					"id" : "obj-62",
					"maxclass" : "message",
					"numinlets" : 2,
					"numoutlets" : 1,
					"outlettype" : [ "" ],
					"patching_rect" : [ 31.5, 604.0, 58.0, 22.0 ],
					"text" : "plane $1"
				}

			}
 ],
		"lines" : [ 			{
				"patchline" : 				{
					"destination" : [ "obj-101", 0 ],
					"order" : 0,
					"source" : [ "obj-1", 1 ]
				}

			}
, 			{
				"patchline" : 				{
					"destination" : [ "obj-102", 0 ],
					"source" : [ "obj-1", 2 ]
				}

			}
, 			{
				"patchline" : 				{
					"destination" : [ "obj-36", 0 ],
					"order" : 1,
					"source" : [ "obj-1", 1 ]
				}

			}
, 			{
				"patchline" : 				{
					"destination" : [ "obj-14", 0 ],
					"order" : 1,
					"source" : [ "obj-10", 1 ]
				}

			}
, 			{
				"patchline" : 				{
					"destination" : [ "obj-14", 0 ],
					"source" : [ "obj-10", 0 ]
				}

			}
, 			{
				"patchline" : 				{
					"destination" : [ "obj-3", 0 ],
					"order" : 0,
					"source" : [ "obj-10", 1 ]
				}

			}
, 			{
				"patchline" : 				{
					"destination" : [ "obj-8", 0 ],
					"source" : [ "obj-100", 1 ]
				}

			}
, 			{
				"patchline" : 				{
					"destination" : [ "obj-8", 0 ],
					"source" : [ "obj-100", 0 ]
				}

			}
, 			{
				"patchline" : 				{
					"destination" : [ "obj-100", 0 ],
					"source" : [ "obj-101", 0 ]
				}

			}
, 			{
				"patchline" : 				{
					"destination" : [ "obj-97", 0 ],
					"source" : [ "obj-102", 0 ]
				}

			}
, 			{
				"patchline" : 				{
					"destination" : [ "obj-58", 2 ],
					"source" : [ "obj-12", 0 ]
				}

			}
, 			{
				"patchline" : 				{
					"destination" : [ "obj-131", 3 ],
					"source" : [ "obj-128", 0 ]
				}

			}
, 			{
				"patchline" : 				{
					"destination" : [ "obj-1", 0 ],
					"order" : 1,
					"source" : [ "obj-129", 0 ]
				}

			}
, 			{
				"patchline" : 				{
					"destination" : [ "obj-138", 0 ],
					"order" : 0,
					"source" : [ "obj-129", 0 ]
				}

			}
, 			{
				"patchline" : 				{
					"destination" : [ "obj-1", 0 ],
					"source" : [ "obj-13", 0 ]
				}

			}
, 			{
				"patchline" : 				{
					"destination" : [ "obj-131", 0 ],
					"source" : [ "obj-130", 0 ]
				}

			}
, 			{
				"patchline" : 				{
					"destination" : [ "obj-129", 0 ],
					"source" : [ "obj-131", 0 ]
				}

			}
, 			{
				"patchline" : 				{
					"destination" : [ "obj-128", 0 ],
					"source" : [ "obj-138", 0 ]
				}

			}
, 			{
				"patchline" : 				{
					"destination" : [ "obj-19", 0 ],
					"midpoints" : [ 624.5, 1077.284521222114563, 624.5, 1077.284521222114563 ],
					"source" : [ "obj-14", 0 ]
				}

			}
, 			{
				"patchline" : 				{
					"destination" : [ "obj-152", 0 ],
					"source" : [ "obj-148", 0 ]
				}

			}
, 			{
				"patchline" : 				{
					"destination" : [ "obj-58", 3 ],
					"source" : [ "obj-15", 0 ]
				}

			}
, 			{
				"patchline" : 				{
					"destination" : [ "obj-155", 3 ],
					"source" : [ "obj-152", 0 ]
				}

			}
, 			{
				"patchline" : 				{
					"destination" : [ "obj-148", 0 ],
					"source" : [ "obj-153", 0 ]
				}

			}
, 			{
				"patchline" : 				{
					"destination" : [ "obj-155", 0 ],
					"source" : [ "obj-154", 0 ]
				}

			}
, 			{
				"patchline" : 				{
					"destination" : [ "obj-153", 0 ],
					"source" : [ "obj-155", 0 ]
				}

			}
, 			{
				"patchline" : 				{
					"destination" : [ "obj-148", 1 ],
					"order" : 0,
					"source" : [ "obj-156", 0 ]
				}

			}
, 			{
				"patchline" : 				{
					"destination" : [ "obj-155", 4 ],
					"order" : 1,
					"source" : [ "obj-156", 0 ]
				}

			}
, 			{
				"patchline" : 				{
					"destination" : [ "obj-156", 0 ],
					"source" : [ "obj-157", 0 ]
				}

			}
, 			{
				"patchline" : 				{
					"destination" : [ "obj-10", 0 ],
					"source" : [ "obj-16", 0 ]
				}

			}
, 			{
				"patchline" : 				{
					"destination" : [ "obj-166", 0 ],
					"source" : [ "obj-165", 0 ]
				}

			}
, 			{
				"patchline" : 				{
					"destination" : [ "obj-130", 0 ],
					"order" : 3,
					"source" : [ "obj-166", 1 ]
				}

			}
, 			{
				"patchline" : 				{
					"destination" : [ "obj-154", 0 ],
					"order" : 0,
					"source" : [ "obj-166", 1 ]
				}

			}
, 			{
				"patchline" : 				{
					"destination" : [ "obj-172", 0 ],
					"order" : 1,
					"source" : [ "obj-166", 1 ]
				}

			}
, 			{
				"patchline" : 				{
					"destination" : [ "obj-25", 1 ],
					"order" : 1,
					"source" : [ "obj-166", 0 ]
				}

			}
, 			{
				"patchline" : 				{
					"destination" : [ "obj-25", 0 ],
					"order" : 2,
					"source" : [ "obj-166", 0 ]
				}

			}
, 			{
				"patchline" : 				{
					"destination" : [ "obj-6", 0 ],
					"order" : 0,
					"source" : [ "obj-166", 0 ]
				}

			}
, 			{
				"patchline" : 				{
					"destination" : [ "obj-69", 0 ],
					"order" : 2,
					"source" : [ "obj-166", 1 ]
				}

			}
, 			{
				"patchline" : 				{
					"destination" : [ "obj-24", 0 ],
					"source" : [ "obj-17", 0 ]
				}

			}
, 			{
				"patchline" : 				{
					"destination" : [ "obj-166", 0 ],
					"order" : 0,
					"source" : [ "obj-172", 0 ]
				}

			}
, 			{
				"patchline" : 				{
					"destination" : [ "obj-27", 3 ],
					"order" : 1,
					"source" : [ "obj-172", 0 ]
				}

			}
, 			{
				"patchline" : 				{
					"destination" : [ "obj-174", 0 ],
					"source" : [ "obj-173", 0 ]
				}

			}
, 			{
				"patchline" : 				{
					"destination" : [ "obj-173", 0 ],
					"order" : 1,
					"source" : [ "obj-174", 2 ]
				}

			}
, 			{
				"patchline" : 				{
					"destination" : [ "obj-176", 1 ],
					"source" : [ "obj-174", 1 ]
				}

			}
, 			{
				"patchline" : 				{
					"destination" : [ "obj-176", 0 ],
					"source" : [ "obj-174", 0 ]
				}

			}
, 			{
				"patchline" : 				{
					"destination" : [ "obj-181", 0 ],
					"order" : 0,
					"source" : [ "obj-174", 2 ]
				}

			}
, 			{
				"patchline" : 				{
					"destination" : [ "obj-174", 0 ],
					"source" : [ "obj-175", 0 ]
				}

			}
, 			{
				"patchline" : 				{
					"destination" : [ "obj-179", 0 ],
					"source" : [ "obj-177", 0 ]
				}

			}
, 			{
				"patchline" : 				{
					"destination" : [ "obj-182", 3 ],
					"source" : [ "obj-179", 0 ]
				}

			}
, 			{
				"patchline" : 				{
					"destination" : [ "obj-58", 4 ],
					"source" : [ "obj-18", 0 ]
				}

			}
, 			{
				"patchline" : 				{
					"destination" : [ "obj-177", 0 ],
					"order" : 0,
					"source" : [ "obj-180", 0 ]
				}

			}
, 			{
				"patchline" : 				{
					"destination" : [ "obj-188", 0 ],
					"order" : 1,
					"source" : [ "obj-180", 0 ]
				}

			}
, 			{
				"patchline" : 				{
					"destination" : [ "obj-173", 0 ],
					"order" : 1,
					"source" : [ "obj-181", 0 ]
				}

			}
, 			{
				"patchline" : 				{
					"destination" : [ "obj-182", 0 ],
					"order" : 0,
					"source" : [ "obj-181", 0 ]
				}

			}
, 			{
				"patchline" : 				{
					"destination" : [ "obj-180", 0 ],
					"source" : [ "obj-182", 0 ]
				}

			}
, 			{
				"patchline" : 				{
					"destination" : [ "obj-177", 1 ],
					"order" : 0,
					"source" : [ "obj-183", 0 ]
				}

			}
, 			{
				"patchline" : 				{
					"destination" : [ "obj-182", 4 ],
					"order" : 1,
					"source" : [ "obj-183", 0 ]
				}

			}
, 			{
				"patchline" : 				{
					"destination" : [ "obj-183", 0 ],
					"source" : [ "obj-184", 0 ]
				}

			}
, 			{
				"patchline" : 				{
					"destination" : [ "obj-188", 0 ],
					"source" : [ "obj-185", 0 ]
				}

			}
, 			{
				"patchline" : 				{
					"destination" : [ "obj-185", 0 ],
					"source" : [ "obj-187", 0 ]
				}

			}
, 			{
				"patchline" : 				{
					"destination" : [ "obj-175", 0 ],
					"source" : [ "obj-188", 1 ]
				}

			}
, 			{
				"patchline" : 				{
					"destination" : [ "obj-184", 0 ],
					"source" : [ "obj-188", 2 ]
				}

			}
, 			{
				"patchline" : 				{
					"destination" : [ "obj-13", 0 ],
					"source" : [ "obj-2", 0 ]
				}

			}
, 			{
				"patchline" : 				{
					"destination" : [ "obj-20", 0 ],
					"source" : [ "obj-23", 1 ]
				}

			}
, 			{
				"patchline" : 				{
					"destination" : [ "obj-21", 0 ],
					"source" : [ "obj-23", 0 ]
				}

			}
, 			{
				"patchline" : 				{
					"destination" : [ "obj-44", 0 ],
					"source" : [ "obj-24", 0 ]
				}

			}
, 			{
				"patchline" : 				{
					"destination" : [ "obj-29", 0 ],
					"source" : [ "obj-27", 0 ]
				}

			}
, 			{
				"patchline" : 				{
					"destination" : [ "obj-31", 0 ],
					"order" : 2,
					"source" : [ "obj-28", 0 ]
				}

			}
, 			{
				"patchline" : 				{
					"destination" : [ "obj-41", 0 ],
					"order" : 0,
					"source" : [ "obj-28", 0 ]
				}

			}
, 			{
				"patchline" : 				{
					"destination" : [ "obj-42", 0 ],
					"order" : 1,
					"source" : [ "obj-28", 0 ]
				}

			}
, 			{
				"patchline" : 				{
					"destination" : [ "obj-52", 0 ],
					"order" : 3,
					"source" : [ "obj-28", 0 ]
				}

			}
, 			{
				"patchline" : 				{
					"destination" : [ "obj-24", 1 ],
					"source" : [ "obj-30", 0 ]
				}

			}
, 			{
				"patchline" : 				{
					"destination" : [ "obj-33", 0 ],
					"source" : [ "obj-31", 0 ]
				}

			}
, 			{
				"patchline" : 				{
					"destination" : [ "obj-17", 0 ],
					"source" : [ "obj-32", 0 ]
				}

			}
, 			{
				"patchline" : 				{
					"destination" : [ "obj-30", 0 ],
					"source" : [ "obj-33", 0 ]
				}

			}
, 			{
				"patchline" : 				{
					"destination" : [ "obj-37", 0 ],
					"source" : [ "obj-34", 0 ]
				}

			}
, 			{
				"patchline" : 				{
					"destination" : [ "obj-40", 0 ],
					"source" : [ "obj-35", 0 ]
				}

			}
, 			{
				"patchline" : 				{
					"destination" : [ "obj-38", 0 ],
					"source" : [ "obj-36", 2 ]
				}

			}
, 			{
				"patchline" : 				{
					"destination" : [ "obj-43", 0 ],
					"source" : [ "obj-37", 0 ]
				}

			}
, 			{
				"patchline" : 				{
					"destination" : [ "obj-39", 0 ],
					"source" : [ "obj-38", 1 ]
				}

			}
, 			{
				"patchline" : 				{
					"destination" : [ "obj-64", 0 ],
					"source" : [ "obj-39", 0 ]
				}

			}
, 			{
				"patchline" : 				{
					"destination" : [ "obj-9", 0 ],
					"source" : [ "obj-4", 0 ]
				}

			}
, 			{
				"patchline" : 				{
					"destination" : [ "obj-43", 1 ],
					"source" : [ "obj-40", 0 ]
				}

			}
, 			{
				"patchline" : 				{
					"destination" : [ "obj-35", 0 ],
					"source" : [ "obj-41", 0 ]
				}

			}
, 			{
				"patchline" : 				{
					"destination" : [ "obj-34", 0 ],
					"source" : [ "obj-42", 0 ]
				}

			}
, 			{
				"patchline" : 				{
					"destination" : [ "obj-44", 1 ],
					"source" : [ "obj-43", 0 ]
				}

			}
, 			{
				"patchline" : 				{
					"destination" : [ "obj-16", 0 ],
					"source" : [ "obj-44", 0 ]
				}

			}
, 			{
				"patchline" : 				{
					"destination" : [ "obj-32", 0 ],
					"source" : [ "obj-52", 0 ]
				}

			}
, 			{
				"patchline" : 				{
					"destination" : [ "obj-9", 0 ],
					"source" : [ "obj-54", 0 ]
				}

			}
, 			{
				"patchline" : 				{
					"destination" : [ "obj-28", 0 ],
					"order" : 1,
					"source" : [ "obj-58", 0 ]
				}

			}
, 			{
				"patchline" : 				{
					"destination" : [ "obj-74", 0 ],
					"midpoints" : [ 1172.914661884307861, 619.321140170097351, 1172.914661884307861, 619.321140170097351 ],
					"order" : 0,
					"source" : [ "obj-58", 0 ]
				}

			}
, 			{
				"patchline" : 				{
					"destination" : [ "obj-12", 0 ],
					"source" : [ "obj-6", 1 ]
				}

			}
, 			{
				"patchline" : 				{
					"destination" : [ "obj-15", 0 ],
					"source" : [ "obj-6", 2 ]
				}

			}
, 			{
				"patchline" : 				{
					"destination" : [ "obj-18", 0 ],
					"source" : [ "obj-6", 3 ]
				}

			}
, 			{
				"patchline" : 				{
					"destination" : [ "obj-22", 0 ],
					"source" : [ "obj-6", 6 ]
				}

			}
, 			{
				"patchline" : 				{
					"destination" : [ "obj-23", 0 ],
					"source" : [ "obj-6", 7 ]
				}

			}
, 			{
				"patchline" : 				{
					"destination" : [ "obj-26", 0 ],
					"source" : [ "obj-6", 4 ]
				}

			}
, 			{
				"patchline" : 				{
					"destination" : [ "obj-27", 0 ],
					"source" : [ "obj-6", 5 ]
				}

			}
, 			{
				"patchline" : 				{
					"destination" : [ "obj-86", 0 ],
					"source" : [ "obj-6", 0 ]
				}

			}
, 			{
				"patchline" : 				{
					"destination" : [ "obj-61", 0 ],
					"source" : [ "obj-62", 0 ]
				}

			}
, 			{
				"patchline" : 				{
					"destination" : [ "obj-54", 0 ],
					"source" : [ "obj-64", 0 ]
				}

			}
, 			{
				"patchline" : 				{
					"destination" : [ "obj-62", 0 ],
					"source" : [ "obj-66", 0 ]
				}

			}
, 			{
				"patchline" : 				{
					"destination" : [ "obj-172", 0 ],
					"source" : [ "obj-69", 0 ]
				}

			}
, 			{
				"patchline" : 				{
					"destination" : [ "obj-4", 0 ],
					"source" : [ "obj-7", 0 ]
				}

			}
, 			{
				"patchline" : 				{
					"destination" : [ "obj-82", 0 ],
					"midpoints" : [ 1172.914661884307861, 647.321140170097351, 1172.914661884307861, 647.321140170097351 ],
					"source" : [ "obj-74", 0 ]
				}

			}
, 			{
				"patchline" : 				{
					"destination" : [ "obj-53", 0 ],
					"midpoints" : [ 1172.914661884307861, 725.321140170097351, 1172.914661884307861, 725.321140170097351 ],
					"source" : [ "obj-77", 0 ]
				}

			}
, 			{
				"patchline" : 				{
					"destination" : [ "obj-99", 0 ],
					"source" : [ "obj-8", 0 ]
				}

			}
, 			{
				"patchline" : 				{
					"destination" : [ "obj-11", 0 ],
					"order" : 0,
					"source" : [ "obj-82", 1 ]
				}

			}
, 			{
				"patchline" : 				{
					"destination" : [ "obj-77", 0 ],
					"midpoints" : [ 1186.914661884307861, 689.321140170097351, 1172.914661884307861, 689.321140170097351 ],
					"order" : 1,
					"source" : [ "obj-82", 1 ]
				}

			}
, 			{
				"patchline" : 				{
					"destination" : [ "obj-77", 0 ],
					"midpoints" : [ 1172.914661884307861, 680.321140170097351, 1172.914661884307861, 680.321140170097351 ],
					"source" : [ "obj-82", 0 ]
				}

			}
, 			{
				"patchline" : 				{
					"destination" : [ "obj-58", 1 ],
					"source" : [ "obj-84", 0 ]
				}

			}
, 			{
				"patchline" : 				{
					"destination" : [ "obj-58", 0 ],
					"source" : [ "obj-85", 0 ]
				}

			}
, 			{
				"patchline" : 				{
					"destination" : [ "obj-84", 0 ],
					"source" : [ "obj-86", 1 ]
				}

			}
, 			{
				"patchline" : 				{
					"destination" : [ "obj-85", 0 ],
					"source" : [ "obj-86", 0 ]
				}

			}
, 			{
				"patchline" : 				{
					"destination" : [ "obj-157", 0 ],
					"source" : [ "obj-9", 2 ]
				}

			}
, 			{
				"patchline" : 				{
					"destination" : [ "obj-165", 0 ],
					"source" : [ "obj-9", 1 ]
				}

			}
, 			{
				"patchline" : 				{
					"destination" : [ "obj-131", 4 ],
					"order" : 1,
					"source" : [ "obj-97", 0 ]
				}

			}
, 			{
				"patchline" : 				{
					"destination" : [ "obj-138", 1 ],
					"order" : 0,
					"source" : [ "obj-97", 0 ]
				}

			}
, 			{
				"patchline" : 				{
					"destination" : [ "obj-31", 0 ],
					"order" : 2,
					"source" : [ "obj-99", 0 ]
				}

			}
, 			{
				"patchline" : 				{
					"destination" : [ "obj-41", 0 ],
					"order" : 0,
					"source" : [ "obj-99", 0 ]
				}

			}
, 			{
				"patchline" : 				{
					"destination" : [ "obj-42", 0 ],
					"order" : 1,
					"source" : [ "obj-99", 0 ]
				}

			}
, 			{
				"patchline" : 				{
					"destination" : [ "obj-52", 0 ],
					"order" : 3,
					"source" : [ "obj-99", 0 ]
				}

			}
, 			{
				"patchline" : 				{
					"destination" : [ "obj-61", 0 ],
					"order" : 4,
					"source" : [ "obj-99", 0 ]
				}

			}
 ],
		"dependency_cache" : [ 			{
				"name" : "OpenSoundControl.mxe64",
				"type" : "mx64"
			}
 ],
		"autosave" : 0
	}

}
